<svg viewBox="0 0 900 320" xmlns="http://www.w3.org/2000/svg" width="900" height="320">
  <defs>
    <linearGradient id="skyGradient" x1="0%" y1="0%" x2="0%" y2="100%">
      <stop offset="0%" style="stop-color:#87CEEB;stop-opacity:1" />
      <stop offset="50%" style="stop-color:#B0E0E6;stop-opacity:1" />
      <stop offset="100%" style="stop-color:#E0F6FF;stop-opacity:1" />
    </linearGradient>
    <linearGradient id="grassGradient" x1="0%" y1="0%" x2="0%" y2="100%">
      <stop offset="0%" style="stop-color:#7CB342;stop-opacity:1" />
      <stop offset="100%" style="stop-color:#558B2F;stop-opacity:1" />
    </linearGradient>
    <radialGradient id="sunGlow" cx="50%" cy="50%" r="50%">
      <stop offset="0%" style="stop-color:#FFF9C4;stop-opacity:0.8" />
      <stop offset="100%" style="stop-color:#FFF9C4;stop-opacity:0" />
    </radialGradient>
  </defs>

  <rect width="900" height="320" fill="url(#skyGradient)"/>

  <g transform="translate(780, 60)">
    <circle cx="0" cy="0" r="35" fill="url(#sunGlow)"/>
    <circle cx="0" cy="0" r="18" fill="#FFD54F"/>
    <g stroke="#FFD54F" stroke-width="2" opacity="0.6">
      <line x1="0" y1="-25" x2="0" y2="-32"/>
      <line x1="18" y1="-18" x2="23" y2="-23"/>
      <line x1="25" y1="0" x2="32" y2="0"/>
      <line x1="18" y1="18" x2="23" y2="23"/>
      <line x1="0" y1="25" x2="0" y2="32"/>
      <line x1="-18" y1="18" x2="-23" y2="23"/>
      <line x1="-25" y1="0" x2="-32" y2="0"/>
      <line x1="-18" y1="-18" x2="-23" y2="-23"/>
    </g>
  </g>

  <g opacity="0.9">
    <g transform="translate(100, 50)">
      <ellipse cx="0" cy="0" rx="35" ry="20" fill="white"/>
      <ellipse cx="-20" cy="5" rx="25" ry="15" fill="white"/>
      <ellipse cx="20" cy="5" rx="25" ry="15" fill="white"/>
      <animateTransform attributeName="transform" type="translate" values="100,50; 120,50; 100,50" dur="20s" repeatCount="indefinite"/>
    </g>
    <g transform="translate(350, 80)">
      <ellipse cx="0" cy="0" rx="30" ry="18" fill="white"/>
      <ellipse cx="-15" cy="3" rx="20" ry="12" fill="white"/>
      <ellipse cx="18" cy="3" rx="22" ry="14" fill="white"/>
      <animateTransform attributeName="transform" type="translate" values="350,80; 380,80; 350,80" dur="25s" repeatCount="indefinite"/>
    </g>
    <g transform="translate(600, 40)">
      <ellipse cx="0" cy="0" rx="40" ry="22" fill="white"/>
      <ellipse cx="-25" cy="5" rx="28" ry="16" fill="white"/>
      <ellipse cx="25" cy="5" rx="28" ry="16" fill="white"/>
      <animateTransform attributeName="transform" type="translate" values="600,40; 630,40; 600,40" dur="30s" repeatCount="indefinite"/>
    </g>
  </g>

  <g>
    <g>
      <path d="M0,0 Q-12,-8 -18,-3 Q-12,3 0,0" fill="#37474F"/>
      <path d="M0,0 Q12,-8 18,-3 Q12,3 0,0" fill="#37474F"/>
      <path d="M0,0 L-4,12 L0,9 L4,12 Z" fill="#263238"/>
      <circle cx="-1.5" cy="-1" r="1.2" fill="white"/>
      <circle cx="-1.5" cy="-1" r="0.6" fill="black"/>
      <animateTransform attributeName="transform" type="translate" values="0,0; 0,-5; 0,0" dur="0.3s" repeatCount="indefinite"/>
    </g>
    <g transform="translate(-30, 20)">
      <path d="M0,0 Q-10,-7 -16,-2 Q-10,2 0,0" fill="#455A64"/>
      <path d="M0,0 Q10,-7 16,-2 Q10,2 0,0" fill="#455A64"/>
      <path d="M0,0 L-3,10 L0,8 L3,10 Z" fill="#37474F"/>
      <circle cx="-1.2" cy="-0.8" r="1" fill="white"/>
      <circle cx="-1.2" cy="-0.8" r="0.5" fill="black"/>
      <animateTransform attributeName="transform" type="translate" values="-30,20; -30,15; -30,20" dur="0.28s" repeatCount="indefinite"/>
    </g>
    <g transform="translate(25, 18)">
      <path d="M0,0 Q-9,-6 -14,-2 Q-9,2 0,0" fill="#546E7A"/>
      <path d="M0,0 Q9,-6 14,-2 Q9,2 0,0" fill="#546E7A"/>
      <path d="M0,0 L-3,9 L0,7 L3,9 Z" fill="#455A64"/>
      <circle cx="-1" cy="-0.7" r="0.9" fill="white"/>
      <circle cx="-1" cy="-0.7" r="0.45" fill="black"/>
      <animateTransform attributeName="transform" type="translate" values="25,18; 25,13; 25,18" dur="0.35s" repeatCount="indefinite"/>
    </g>
    <animateMotion path="M 150,60 Q 300,40 450,70 Q 600,50 750,80" dur="15s" repeatCount="indefinite"/>
  </g>

  <path d="M 120 245 Q 400 280 680 85" stroke="#666" stroke-width="1.5" fill="none" stroke-dasharray="6,4" opacity="0.7">
    <animate attributeName="d" values="M 120 245 Q 400 280 680 85; M 120 245 Q 400 285 680 85; M 120 245 Q 400 280 680 85" dur="3s" repeatCount="indefinite"/>
  </path>

  <g transform="translate(680, 85)">
    <g>
      <path d="M0,40 Q-20,70 -15,100" stroke="#E53935" stroke-width="4" fill="none" opacity="0.9">
        <animate attributeName="d" values="M0,40 Q-20,70 -15,100; M0,40 Q-30,70 -25,100; M0,40 Q-20,70 -15,100" dur="1.2s" repeatCount="indefinite"/>
      </path>
      <path d="M0,40 Q15,65 25,95" stroke="#FB8C00" stroke-width="3" fill="none" opacity="0.9">
        <animate attributeName="d" values="M0,40 Q15,65 25,95; M0,40 Q25,65 35,95; M0,40 Q15,65 25,95" dur="1s" repeatCount="indefinite"/>
      </path>
      <path d="M0,40 Q-8,60 -12,85" stroke="#43A047" stroke-width="2.5" fill="none" opacity="0.9">
        <animate attributeName="d" values="M0,40 Q-8,60 -12,85; M0,40 Q-15,60 -20,85; M0,40 Q-8,60 -12,85" dur="1.4s" repeatCount="indefinite"/>
      </path>
      <path d="M0,40 Q5,55 10,80" stroke="#1E88E5" stroke-width="2" fill="none" opacity="0.9">
        <animate attributeName="d" values="M0,40 Q5,55 10,80; M0,40 Q12,55 18,80; M0,40 Q5,55 10,80" dur="1.1s" repeatCount="indefinite"/>
      </path>
    </g>
    <g>
      <path d="M0,-45 L-30,0 L0,0 Z" fill="#E53935"/>
      <path d="M0,-45 L0,0 L30,0 Z" fill="#FB8C00"/>
      <path d="M-30,0 L0,45 L0,0 Z" fill="#FDD835"/>
      <path d="M0,0 L0,45 L30,0 Z" fill="#43A047"/>
      <path d="M0,-45 L0,45" stroke="white" stroke-width="2" opacity="0.7"/>
      <path d="M-30,0 L30,0" stroke="white" stroke-width="2" opacity="0.7"/>
      <path d="M0,-45 L-30,0 L0,45 L30,0 Z" stroke="#333" stroke-width="2" fill="none"/>
      <animateTransform attributeName="transform" type="translate" values="0,0; 5,-12; 0,0; -5,-8; 0,0" dur="4s" repeatCount="indefinite"/>
      <animateTransform attributeName="transform" type="rotate" values="-3 0 0; 3 0 0; -3 0 0" dur="3s" repeatCount="indefinite" additive="sum"/>
    </g>
  </g>

  <path d="M0,260 Q150,250 300,265 Q450,255 600,268 Q750,258 900,265 L900,320 L0,320 Z" fill="url(#grassGradient)"/>

  <g>
    <g transform="translate(30, 265)">
      <path d="M0,0 Q-4,-35 -12,-48 Q-3,-28 0,0" fill="#33691E"/>
      <path d="M0,0 Q2,-40 6,-52 Q4,-30 0,0" fill="#558B2F"/>
      <path d="M0,0 Q10,-32 16,-45 Q8,-25 0,0" fill="#7CB342"/>
      <animateTransform attributeName="transform" type="rotate" values="0 0 0; 4 0 0; 0 0 0" dur="2.8s" repeatCount="indefinite"/>
    </g>
    <g transform="translate(80, 270)">
      <path d="M0,0 Q-5,-38 -14,-52 Q-4,-30 0,0" fill="#33691E"/>
      <path d="M0,0 Q3,-42 8,-55 Q5,-32 0,0" fill="#558B2F"/>
      <path d="M0,0 Q12,-35 18,-48 Q9,-28 0,0" fill="#7CB342"/>
      <animateTransform attributeName="transform" type="rotate" values="0 0 0; -3 0 0; 0 0 0" dur="3.2s" repeatCount="indefinite"/>
    </g>
    <g transform="translate(140, 268)">
      <path d="M0,0 Q-3,-30 -8,-42 Q-2,-24 0,0" fill="#33691E"/>
      <path d="M0,0 Q4,-36 9,-48 Q6,-28 0,0" fill="#558B2F"/>
      <path d="M0,0 Q8,-28 13,-40 Q6,-22 0,0" fill="#7CB342"/>
      <animateTransform attributeName="transform" type="rotate" values="0 0 0; 5 0 0; 0 0 0" dur="2.5s" repeatCount="indefinite"/>
    </g>
    <g transform="translate(200, 275)">
      <path d="M0,0 Q-6,-40 -15,-55 Q-5,-32 0,0" fill="#33691E"/>
      <path d="M0,0 Q4,-45 10,-58 Q6,-35 0,0" fill="#558B2F"/>
      <path d="M0,0 Q14,-38 22,-50 Q11,-30 0,0" fill="#7CB342"/>
      <animateTransform attributeName="transform" type="rotate" values="0 0 0; -4 0 0; 0 0 0" dur="2.9s" repeatCount="indefinite"/>
    </g>
    <g transform="translate(380, 278)">
      <path d="M0,0 Q-4,-32 -10,-45 Q-3,-26 0,0" fill="#33691E"/>
      <path d="M0,0 Q5,-38 11,-50 Q7,-30 0,0" fill="#558B2F"/>
      <path d="M0,0 Q10,-30 16,-42 Q8,-24 0,0" fill="#7CB342"/>
      <animateTransform attributeName="transform" type="rotate" values="0 0 0; 3 0 0; 0 0 0" dur="3.1s" repeatCount="indefinite"/>
    </g>
    <g transform="translate(480, 272)">
      <path d="M0,0 Q-5,-36 -13,-50 Q-4,-28 0,0" fill="#33691E"/>
      <path d="M0,0 Q3,-40 7,-52 Q5,-30 0,0" fill="#558B2F"/>
      <path d="M0,0 Q11,-32 17,-45 Q9,-26 0,0" fill="#7CB342"/>
      <animateTransform attributeName="transform" type="rotate" values="0 0 0; -5 0 0; 0 0 0" dur="2.6s" repeatCount="indefinite"/>
    </g>
    <g transform="translate(580, 276)">
      <path d="M0,0 Q-4,-34 -11,-48 Q-3,-28 0,0" fill="#33691E"/>
      <path d="M0,0 Q6,-42 12,-55 Q7,-32 0,0" fill="#558B2F"/>
      <path d="M0,0 Q13,-35 20,-48 Q10,-28 0,0" fill="#7CB342"/>
      <animateTransform attributeName="transform" type="rotate" values="0 0 0; 4 0 0; 0 0 0" dur="3s" repeatCount="indefinite"/>
    </g>
    <g transform="translate(720, 270)">
      <path d="M0,0 Q-6,-38 -15,-52 Q-5,-30 0,0" fill="#33691E"/>
      <path d="M0,0 Q5,-44 12,-58 Q7,-35 0,0" fill="#558B2F"/>
      <path d="M0,0 Q14,-36 22,-50 Q11,-30 0,0" fill="#7CB342"/>
      <animateTransform attributeName="transform" type="rotate" values="0 0 0; -3 0 0; 0 0 0" dur="2.7s" repeatCount="indefinite"/>
    </g>
    <g transform="translate(820, 275)">
      <path d="M0,0 Q-5,-35 -12,-48 Q-4,-28 0,0" fill="#33691E"/>
      <path d="M0,0 Q4,-40 9,-52 Q6,-30 0,0" fill="#558B2F"/>
      <path d="M0,0 Q12,-32 18,-45 Q9,-26 0,0" fill="#7CB342"/>
      <animateTransform attributeName="transform" type="rotate" values="0 0 0; 5 0 0; 0 0 0" dur="3.3s" repeatCount="indefinite"/>
    </g>
    <g transform="translate(860, 280)">
      <path d="M0,0 Q-3,-28 -7,-38 Q-2,-22 0,0" fill="#33691E"/>
      <path d="M0,0 Q5,-32 10,-42 Q6,-25 0,0" fill="#558B2F"/>
      <path d="M0,0 Q9,-26 14,-36 Q7,-20 0,0" fill="#7CB342"/>
      <animateTransform attributeName="transform" type="rotate" values="0 0 0; -4 0 0; 0 0 0" dur="2.4s" repeatCount="indefinite"/>
    </g>
  </g>

  <g>
    <g transform="translate(60, 285)">
      <circle cx="0" cy="0" r="7" fill="#F48FB1"/>
      <circle cx="-5" cy="-5" r="5" fill="#F8BBD9"/>
      <circle cx="5" cy="-5" r="5" fill="#F8BBD9"/>
      <circle cx="-5" cy="5" r="5" fill="#F8BBD9"/>
      <circle cx="5" cy="5" r="5" fill="#F8BBD9"/>
      <circle cx="0" cy="0" r="3.5" fill="#FFEB3B"/>
      <path d="M0,7 L0,18" stroke="#4CAF50" stroke-width="2.5"/>
      <animateTransform attributeName="transform" type="translate" values="60,285; 60,282; 60,285" dur="2.5s" repeatCount="indefinite"/>
    </g>
    <g transform="translate(120, 292)">
      <circle cx="0" cy="0" r="6" fill="#FFEB3B"/>
      <circle cx="-4" cy="-6" r="5" fill="#FFF59D"/>
      <circle cx="4" cy="-6" r="5" fill="#FFF59D"/>
      <circle cx="-6" cy="0" r="5" fill="#FFF59D"/>
      <circle cx="6" cy="0" r="5" fill="#FFF59D"/>
      <circle cx="-4" cy="6" r="5" fill="#FFF59D"/>
      <circle cx="4" cy="6" r="5" fill="#FFF59D"/>
      <circle cx="0" cy="0" r="3" fill="#FF9800"/>
      <path d="M0,6 L0,15" stroke="#4CAF50" stroke-width="2.5"/>
      <animateTransform attributeName="transform" type="translate" values="120,292; 120,289; 120,292" dur="3s" repeatCount="indefinite"/>
    </g>
    <g transform="translate(180, 288)">
      <ellipse cx="0" cy="-6" rx="3.5" ry="6" fill="#CE93D8"/>
      <ellipse cx="6" cy="-2" rx="3.5" ry="6" fill="#CE93D8" transform="rotate(72)"/>
      <ellipse cx="4" cy="5" rx="3.5" ry="6" fill="#CE93D8" transform="rotate(144)"/>
      <ellipse cx="-4" cy="5" rx="3.5" ry="6" fill="#CE93D8" transform="rotate(216)"/>
      <ellipse cx="-6" cy="-2" rx="3.5" ry="6" fill="#CE93D8" transform="rotate(288)"/>
      <circle cx="0" cy="0" r="3.5" fill="#FFF"/>
      <path d="M0,6 L0,22" stroke="#4CAF50" stroke-width="2.5"/>
      <animateTransform attributeName="transform" type="translate" values="180,288; 180,285; 180,288" dur="2.8s" repeatCount="indefinite"/>
    </g>
    <g transform="translate(320, 295)">
      <circle cx="0" cy="0" r="7" fill="#FFF"/>
      <circle cx="0" cy="-6" r="5" fill="#E8EAF6"/>
      <circle cx="5.5" cy="-3" r="5" fill="#E8EAF6"/>
      <circle cx="5.5" cy="3" r="5" fill="#E8EAF6"/>
      <circle cx="0" cy="6" r="5" fill="#E8EAF6"/>
      <circle cx="-5.5" cy="3" r="5" fill="#E8EAF6"/>
      <circle cx="-5.5" cy="-3" r="5" fill="#E8EAF6"/>
      <circle cx="0" cy="0" r="3" fill="#FFEB3B"/>
      <path d="M0,7 L0,15" stroke="#4CAF50" stroke-width="2.5"/>
      <animateTransform attributeName="transform" type="translate" values="320,295; 320,292; 320,295" dur="2.3s" repeatCount="indefinite"/>
    </g>
    <g transform="translate(420, 290)">
      <circle cx="0" cy="0" r="6.5" fill="#FF9800"/>
      <ellipse cx="0" cy="-7" rx="3.5" ry="6" fill="#FFB74D"/>
      <ellipse cx="6.5" cy="-3.5" rx="3.5" ry="6" fill="#FFB74D" transform="rotate(60)"/>
      <ellipse cx="6.5" cy="3.5" rx="3.5" ry="6" fill="#FFB74D" transform="rotate(120)"/>
      <ellipse cx="0" cy="7" rx="3.5" ry="6" fill="#FFB74D" transform="rotate(180)"/>
      <ellipse cx="-6.5" cy="3.5" rx="3.5" ry="6" fill="#FFB74D" transform="rotate(240)"/>
      <ellipse cx="-6.5" cy="-3.5" rx="3.5" ry="6" fill="#FFB74D" transform="rotate(300)"/>
      <circle cx="0" cy="0" r="3.5" fill="#8D6E63"/>
      <path d="M0,6.5 L0,12" stroke="#4CAF50" stroke-width="2.5"/>
      <animateTransform attributeName="transform" type="translate" values="420,290; 420,287; 420,290" dur="2.7s" repeatCount="indefinite"/>
    </g>
    <g transform="translate(520, 296)">
      <circle cx="0" cy="0" r="7" fill="#E53935"/>
      <circle cx="0" cy="-6" r="5" fill="#EF5350"/>
      <circle cx="5" cy="-3.5" r="5" fill="#EF5350"/>
      <circle cx="5" cy="3.5" r="5" fill="#EF5350"/>
      <circle cx="0" cy="6" r="5" fill="#EF5350"/>
      <circle cx="-5" cy="3.5" r="5" fill="#EF5350"/>
      <circle cx="-5" cy="-3.5" r="5" fill="#EF5350"/>
      <circle cx="0" cy="0" r="3.5" fill="#FFEB3B"/>
      <path d="M0,7 L0,18" stroke="#4CAF50" stroke-width="2.5"/>
      <animateTransform attributeName="transform" type="translate" values="520,296; 520,293; 520,296" dur="2.6s" repeatCount="indefinite"/>
    </g>
    <g transform="translate(640, 292)">
      <circle cx="0" cy="0" r="6" fill="#42A5F5"/>
      <ellipse cx="0" cy="-6" rx="3" ry="5" fill="#90CAF9"/>
      <ellipse cx="5.5" cy="-3" rx="3" ry="5" fill="#90CAF9" transform="rotate(72)"/>
      <ellipse cx="3.5" cy="5" rx="3" ry="5" fill="#90CAF9" transform="rotate(144)"/>
      <ellipse cx="-3.5" cy="5" rx="3" ry="5" fill="#90CAF9" transform="rotate(216)"/>
      <ellipse cx="-5.5" cy="-3" rx="3" ry="5" fill="#90CAF9" transform="rotate(288)"/>
      <circle cx="0" cy="0" r="3" fill="#FFF"/>
      <path d="M0,6 L0,12" stroke="#4CAF50" stroke-width="2.5"/>
      <animateTransform attributeName="transform" type="translate" values="640,292; 640,289; 640,292" dur="2.9s" repeatCount="indefinite"/>
    </g>
  </g>

  <g>
    <g>
      <ellipse cx="0" cy="0" rx="7" ry="4.5" fill="#FFC107"/>
      <rect x="-4.5" y="-3.5" width="2.2" height="7" fill="#212121"/>
      <rect x="-1.2" y="-4" width="2.2" height="8" fill="#212121"/>
      <rect x="2.2" y="-3.5" width="2.2" height="7" fill="#212121"/>
      <circle cx="-6" cy="0" r="3" fill="#212121"/>
      <ellipse cx="0" cy="-4.5" rx="4.5" ry="3" fill="#E3F2FD" opacity="0.8">
        <animateTransform attributeName="transform" type="scale" values="1,1; 1,0.2; 1,1" dur="0.06s" repeatCount="indefinite"/>
      </ellipse>
      <ellipse cx="2.5" cy="-4" rx="3.5" ry="2.2" fill="#E3F2FD" opacity="0.7">
        <animateTransform attributeName="transform" type="scale" values="1,1; 1,0.2; 1,1" dur="0.06s" repeatCount="indefinite"/>
      </ellipse>
      <animateMotion path="M 800,250 Q 650,200 500,250 Q 350,220 200,260 Q 100,270 60,285 L 60,285 L 60,285 L 60,285 L 60,285 L 60,285 L 60,285 L 60,285" dur="10s" repeatCount="indefinite"/>
    </g>

    <g>
      <ellipse cx="0" cy="0" rx="6" ry="4" fill="#FFC107"/>
      <rect x="-3.5" y="-3" width="1.8" height="6" fill="#212121"/>
      <rect x="-0.7" y="-3.5" width="1.8" height="7" fill="#212121"/>
      <rect x="1.8" y="-3" width="1.8" height="6" fill="#212121"/>
      <circle cx="-5" cy="0" r="2.5" fill="#212121"/>
      <ellipse cx="0" cy="-4" rx="4" ry="2.5" fill="#E3F2FD" opacity="0.8">
        <animateTransform attributeName="transform" type="scale" values="1,1; 1,0.2; 1,1" dur="0.05s" repeatCount="indefinite"/>
      </ellipse>
      <ellipse cx="2" cy="-3.5" rx="3" ry="2" fill="#E3F2FD" opacity="0.7">
        <animateTransform attributeName="transform" type="scale" values="1,1; 1,0.2; 1,1" dur="0.05s" repeatCount="indefinite"/>
      </ellipse>
      <animateMotion path="M 850,280 Q 750,230 650,280 Q 550,240 450,280 Q 300,290 200,295 Q 150,300 120,292 L 120,292 L 120,292 L 120,292 L 120,292 L 120,292 L 120,292 L 120,292" dur="12s" repeatCount="indefinite"/>
    </g>

    <g>
      <ellipse cx="0" cy="0" rx="6.5" ry="4.2" fill="#FFC107"/>
      <rect x="-4" y="-3.2" width="2" height="6.4" fill="#212121"/>
      <rect x="-1" y="-3.6" width="2" height="7.2" fill="#212121"/>
      <rect x="2" y="-3.2" width="2" height="6.4" fill="#212121"/>
      <circle cx="-5.5" cy="0" r="2.8" fill="#212121"/>
      <ellipse cx="0" cy="-4.2" rx="4.2" ry="2.8" fill="#E3F2FD" opacity="0.8">
        <animateTransform attributeName="transform" type="scale" values="1,1; 1,0.2; 1,1" dur="0.07s" repeatCount="indefinite"/>
      </ellipse>
      <ellipse cx="2.2" cy="-3.7" rx="3.2" ry="2.2" fill="#E3F2FD" opacity="0.7">
        <animateTransform attributeName="transform" type="scale" values="1,1; 1,0.2; 1,1" dur="0.07s" repeatCount="indefinite"/>
      </ellipse>
      <animateMotion path="M 900,220 Q 800,260 700,240 Q 600,280 520,296 L 520,296 L 520,296 L 520,296 L 520,296 L 520,296 L 520,296 L 520,296" dur="11s" repeatCount="indefinite"/>
    </g>
  </g>

  <g transform="translate(95, 245)">
    <circle cx="0" cy="0" r="30" fill="#326CE5" opacity="0.9"/>
    <circle cx="0" cy="0" r="26" fill="none" stroke="white" stroke-width="2"/>
    <g stroke="white" stroke-width="3.5" stroke-linecap="round">
      <line x1="0" y1="-26" x2="0" y2="-14"/>
      <line x1="20" y1="-18" x2="11" y2="-10"/>
      <line x1="24" y1="4" x2="13" y2="2"/>
      <line x1="10" y1="23" x2="6" y2="13"/>
      <line x1="-10" y1="23" x2="-6" y2="13"/>
      <line x1="-24" y1="4" x2="-13" y2="2"/>
      <line x1="-20" y1="-18" x2="-11" y2="-10"/>
    </g>
    <circle cx="0" cy="0" r="8" fill="white"/>
    <circle cx="0" cy="0" r="4" fill="#326CE5"/>
    <animateTransform attributeName="transform" type="rotate" from="0 0 0" to="360 0 0" dur="20s" repeatCount="indefinite" additive="sum"/>
  </g>

  <g>
    <g>
      <g>
        <path d="M0,0 Q-12,-15 -18,-8 Q-12,0 0,0" fill="#FF9800" opacity="0.85">
          <animateTransform attributeName="transform" type="scale" values="1,1; 0.2,1; 1,1" dur="0.15s" repeatCount="indefinite"/>
        </path>
        <path d="M0,0 Q12,-15 18,-8 Q12,0 0,0" fill="#FF9800" opacity="0.85">
          <animateTransform attributeName="transform" type="scale" values="1,1; 0.2,1; 1,1" dur="0.15s" repeatCount="indefinite"/>
        </path>
        <path d="M0,0 Q-9,12 -15,8 Q-9,3 0,0" fill="#FFB74D" opacity="0.75">
          <animateTransform attributeName="transform" type="scale" values="1,1; 0.2,1; 1,1" dur="0.15s" repeatCount="indefinite"/>
        </path>
        <path d="M0,0 Q9,12 15,8 Q9,3 0,0" fill="#FFB74D" opacity="0.75">
          <animateTransform attributeName="transform" type="scale" values="1,1; 0.2,1; 1,1" dur="0.15s" repeatCount="indefinite"/>
        </path>
        <line x1="0" y1="-4" x2="0" y2="12" stroke="#5D4037" stroke-width="2"/>
      </g>
      <animateMotion path="M 50,150 Q 100,100 150,120 Q 180,288 L 180,288 L 180,288 L 180,288 L 180,288 L 180,288" dur="8s" repeatCount="indefinite"/>
    </g>

    <g>
      <g>
        <path d="M0,0 Q-14,-17 -21,-9 Q-14,0 0,0" fill="#42A5F5" opacity="0.85">
          <animateTransform attributeName="transform" type="scale" values="1,1; 0.2,1; 1,1" dur="0.18s" repeatCount="indefinite"/>
        </path>
        <path d="M0,0 Q14,-17 21,-9 Q14,0 0,0" fill="#42A5F5" opacity="0.85">
          <animateTransform attributeName="transform" type="scale" values="1,1; 0.2,1; 1,1" dur="0.18s" repeatCount="indefinite"/>
        </path>
        <path d="M0,0 Q-10,14 -17,9 Q-10,4 0,0" fill="#90CAF9" opacity="0.75">
          <animateTransform attributeName="transform" type="scale" values="1,1; 0.2,1; 1,1" dur="0.18s" repeatCount="indefinite"/>
        </path>
        <path d="M0,0 Q10,14 17,9 Q10,4 0,0" fill="#90CAF9" opacity="0.75">
          <animateTransform attributeName="transform" type="scale" values="1,1; 0.2,1; 1,1" dur="0.18s" repeatCount="indefinite"/>
        </path>
        <line x1="0" y1="-5" x2="0" y2="14" stroke="#5D4037" stroke-width="2"/>
      </g>
      <animateMotion path="M 750,100 Q 700,150 650,120 Q 600,200 640,292 L 640,292 L 640,292 L 640,292 L 640,292 L 640,292" dur="10s" repeatCount="indefinite"/>
    </g>

    <g>
      <g>
        <path d="M0,0 Q-13,-16 -19,-8 Q-13,0 0,0" fill="#EC407A" opacity="0.85">
          <animateTransform attributeName="transform" type="scale" values="1,1; 0.2,1; 1,1" dur="0.16s" repeatCount="indefinite"/>
        </path>
        <path d="M0,0 Q13,-16 19,-8 Q13,0 0,0" fill="#EC407A" opacity="0.85">
          <animateTransform attributeName="transform" type="scale" values="1,1; 0.2,1; 1,1" dur="0.16s" repeatCount="indefinite"/>
        </path>
        <path d="M0,0 Q-9,13 -16,8 Q-9,3 0,0" fill="#F48FB1" opacity="0.75">
          <animateTransform attributeName="transform" type="scale" values="1,1; 0.2,1; 1,1" dur="0.16s" repeatCount="indefinite"/>
        </path>
        <path d="M0,0 Q9,13 16,8 Q9,3 0,0" fill="#F48FB1" opacity="0.75">
          <animateTransform attributeName="transform" type="scale" values="1,1; 0.2,1; 1,1" dur="0.16s" repeatCount="indefinite"/>
        </path>
        <line x1="0" y1="-4" x2="0" y2="13" stroke="#5D4037" stroke-width="2"/>
      </g>
      <animateMotion path="M 200,180 Q 250,130 300,160 Q 320,295 L 320,295 L 320,295 L 320,295 L 320,295 L 320,295" dur="9s" repeatCount="indefinite"/>
    </g>
  </g>
</svg>